<svg xmlns="http://www.w3.org/2000/svg" viewBox="0 0 900 120" width="100%" role="img" aria-label="Pied de page : merci de votre visite, QR code vers github.com/Arjouan">
  <defs>
    <linearGradient id="bpffr" x1="0" y1="0" x2="1" y2="0">
      <stop offset="0" stop-color="#00f5a0"/>
      <stop offset="0.5" stop-color="#0072ff"/>
      <stop offset="1" stop-color="#00c6ff"/>
    </linearGradient>
  </defs>

  <rect x="2" y="2" width="896" height="116" rx="18" fill="#0d1117" stroke="url(#bpffr)" stroke-width="2"/>
  <line x1="40" y1="90" x2="760" y2="90" stroke="#30363d" stroke-width="1.5" stroke-dasharray="10 6"/>

  <path d="M-10 -6 L12 0 L-10 6 L-3 0 Z" fill="url(#bpffr)">
    <animateMotion dur="5s" repeatCount="indefinite" rotate="auto" path="M60 40 L760 90"/>
  </path>

  <text x="390" y="55" text-anchor="middle" font-family="Segoe UI, Arial, sans-serif" font-size="20" font-weight="700" fill="#f0f6fc">Merci de votre escale</text>
  <text x="390" y="78" text-anchor="middle" font-family="Courier New, monospace" font-size="12" letter-spacing="2" fill="#8b98a5">PROCHAINE DESTINATION : VOTRE BOÎTE MAIL</text>

  <rect x="798" y="14" width="74" height="74" rx="4" fill="#f0f6fc"/>
  <g fill="#0d1117">
    <rect x="802.00" y="18.00" width="2.64" height="2.64"/>
    <rect x="804.64" y="18.00" width="2.64" height="2.64"/>
    <rect x="807.28" y="18.00" width="2.64" height="2.64"/>
    <rect x="809.92" y="18.00" width="2.64" height="2.64"/>
    <rect x="812.56" y="18.00" width="2.64" height="2.64"/>
    <rect x="815.20" y="18.00" width="2.64" height="2.64"/>
    <rect x="817.84" y="18.00" width="2.64" height="2.64"/>
    <rect x="825.76" y="18.00" width="2.64" height="2.64"/>
    <rect x="828.40" y="18.00" width="2.64" height="2.64"/>
    <rect x="831.04" y="18.00" width="2.64" height="2.64"/>
    <rect x="838.96" y="18.00" width="2.64" height="2.64"/>
    <rect x="849.52" y="18.00" width="2.64" height="2.64"/>
    <rect x="852.16" y="18.00" width="2.64" height="2.64"/>
    <rect x="854.80" y="18.00" width="2.64" height="2.64"/>
    <rect x="857.44" y="18.00" width="2.64" height="2.64"/>
    <rect x="860.08" y="18.00" width="2.64" height="2.64"/>
    <rect x="862.72" y="18.00" width="2.64" height="2.64"/>
    <rect x="865.36" y="18.00" width="2.64" height="2.64"/>
    <rect x="802.00" y="20.64" width="2.64" height="2.64"/>
    <rect x="817.84" y="20.64" width="2.64" height="2.64"/>
    <rect x="823.12" y="20.64" width="2.64" height="2.64"/>
    <rect x="825.76" y="20.64" width="2.64" height="2.64"/>
    <rect x="828.40" y="20.64" width="2.64" height="2.64"/>
    <rect x="838.96" y="20.64" width="2.64" height="2.64"/>
    <rect x="844.24" y="20.64" width="2.64" height="2.64"/>
    <rect x="849.52" y="20.64" width="2.64" height="2.64"/>
    <rect x="865.36" y="20.64" width="2.64" height="2.64"/>
    <rect x="802.00" y="23.28" width="2.64" height="2.64"/>
    <rect x="807.28" y="23.28" width="2.64" height="2.64"/>
    <rect x="809.92" y="23.28" width="2.64" height="2.64"/>
    <rect x="812.56" y="23.28" width="2.64" height="2.64"/>
    <rect x="817.84" y="23.28" width="2.64" height="2.64"/>
    <rect x="823.12" y="23.28" width="2.64" height="2.64"/>
    <rect x="828.40" y="23.28" width="2.64" height="2.64"/>
    <rect x="831.04" y="23.28" width="2.64" height="2.64"/>
    <rect x="833.68" y="23.28" width="2.64" height="2.64"/>
    <rect x="838.96" y="23.28" width="2.64" height="2.64"/>
    <rect x="844.24" y="23.28" width="2.64" height="2.64"/>
    <rect x="849.52" y="23.28" width="2.64" height="2.64"/>
    <rect x="854.80" y="23.28" width="2.64" height="2.64"/>
    <rect x="857.44" y="23.28" width="2.64" height="2.64"/>
    <rect x="860.08" y="23.28" width="2.64" height="2.64"/>
    <rect x="865.36" y="23.28" width="2.64" height="2.64"/>
    <rect x="802.00" y="25.92" width="2.64" height="2.64"/>
    <rect x="807.28" y="25.92" width="2.64" height="2.64"/>
    <rect x="809.92" y="25.92" width="2.64" height="2.64"/>
    <rect x="812.56" y="25.92" width="2.64" height="2.64"/>
    <rect x="817.84" y="25.92" width="2.64" height="2.64"/>
    <rect x="823.12" y="25.92" width="2.64" height="2.64"/>
    <rect x="833.68" y="25.92" width="2.64" height="2.64"/>
    <rect x="836.32" y="25.92" width="2.64" height="2.64"/>
    <rect x="838.96" y="25.92" width="2.64" height="2.64"/>
    <rect x="841.60" y="25.92" width="2.64" height="2.64"/>
    <rect x="844.24" y="25.92" width="2.64" height="2.64"/>
    <rect x="849.52" y="25.92" width="2.64" height="2.64"/>
    <rect x="854.80" y="25.92" width="2.64" height="2.64"/>
    <rect x="857.44" y="25.92" width="2.64" height="2.64"/>
    <rect x="860.08" y="25.92" width="2.64" height="2.64"/>
    <rect x="865.36" y="25.92" width="2.64" height="2.64"/>
    <rect x="802.00" y="28.56" width="2.64" height="2.64"/>
    <rect x="807.28" y="28.56" width="2.64" height="2.64"/>
    <rect x="809.92" y="28.56" width="2.64" height="2.64"/>
    <rect x="812.56" y="28.56" width="2.64" height="2.64"/>
    <rect x="817.84" y="28.56" width="2.64" height="2.64"/>
    <rect x="828.40" y="28.56" width="2.64" height="2.64"/>
    <rect x="836.32" y="28.56" width="2.64" height="2.64"/>
    <rect x="844.24" y="28.56" width="2.64" height="2.64"/>
    <rect x="849.52" y="28.56" width="2.64" height="2.64"/>
    <rect x="854.80" y="28.56" width="2.64" height="2.64"/>
    <rect x="857.44" y="28.56" width="2.64" height="2.64"/>
    <rect x="860.08" y="28.56" width="2.64" height="2.64"/>
    <rect x="865.36" y="28.56" width="2.64" height="2.64"/>
    <rect x="802.00" y="31.20" width="2.64" height="2.64"/>
    <rect x="817.84" y="31.20" width="2.64" height="2.64"/>
    <rect x="828.40" y="31.20" width="2.64" height="2.64"/>
    <rect x="831.04" y="31.20" width="2.64" height="2.64"/>
    <rect x="836.32" y="31.20" width="2.64" height="2.64"/>
    <rect x="838.96" y="31.20" width="2.64" height="2.64"/>
    <rect x="844.24" y="31.20" width="2.64" height="2.64"/>
    <rect x="849.52" y="31.20" width="2.64" height="2.64"/>
    <rect x="865.36" y="31.20" width="2.64" height="2.64"/>
    <rect x="802.00" y="33.84" width="2.64" height="2.64"/>
    <rect x="804.64" y="33.84" width="2.64" height="2.64"/>
    <rect x="807.28" y="33.84" width="2.64" height="2.64"/>
    <rect x="809.92" y="33.84" width="2.64" height="2.64"/>
    <rect x="812.56" y="33.84" width="2.64" height="2.64"/>
    <rect x="815.20" y="33.84" width="2.64" height="2.64"/>
    <rect x="817.84" y="33.84" width="2.64" height="2.64"/>
    <rect x="823.12" y="33.84" width="2.64" height="2.64"/>
    <rect x="828.40" y="33.84" width="2.64" height="2.64"/>
    <rect x="833.68" y="33.84" width="2.64" height="2.64"/>
    <rect x="838.96" y="33.84" width="2.64" height="2.64"/>
    <rect x="844.24" y="33.84" width="2.64" height="2.64"/>
    <rect x="849.52" y="33.84" width="2.64" height="2.64"/>
    <rect x="852.16" y="33.84" width="2.64" height="2.64"/>
    <rect x="854.80" y="33.84" width="2.64" height="2.64"/>
    <rect x="857.44" y="33.84" width="2.64" height="2.64"/>
    <rect x="860.08" y="33.84" width="2.64" height="2.64"/>
    <rect x="862.72" y="33.84" width="2.64" height="2.64"/>
    <rect x="865.36" y="33.84" width="2.64" height="2.64"/>
    <rect x="823.12" y="36.48" width="2.64" height="2.64"/>
    <rect x="825.76" y="36.48" width="2.64" height="2.64"/>
    <rect x="828.40" y="36.48" width="2.64" height="2.64"/>
    <rect x="831.04" y="36.48" width="2.64" height="2.64"/>
    <rect x="833.68" y="36.48" width="2.64" height="2.64"/>
    <rect x="838.96" y="36.48" width="2.64" height="2.64"/>
    <rect x="841.60" y="36.48" width="2.64" height="2.64"/>
    <rect x="802.00" y="39.12" width="2.64" height="2.64"/>
    <rect x="817.84" y="39.12" width="2.64" height="2.64"/>
    <rect x="823.12" y="39.12" width="2.64" height="2.64"/>
    <rect x="825.76" y="39.12" width="2.64" height="2.64"/>
    <rect x="831.04" y="39.12" width="2.64" height="2.64"/>
    <rect x="838.96" y="39.12" width="2.64" height="2.64"/>
    <rect x="841.60" y="39.12" width="2.64" height="2.64"/>
    <rect x="846.88" y="39.12" width="2.64" height="2.64"/>
    <rect x="849.52" y="39.12" width="2.64" height="2.64"/>
    <rect x="857.44" y="39.12" width="2.64" height="2.64"/>
    <rect x="860.08" y="39.12" width="2.64" height="2.64"/>
    <rect x="862.72" y="39.12" width="2.64" height="2.64"/>
    <rect x="804.64" y="41.76" width="2.64" height="2.64"/>
    <rect x="807.28" y="41.76" width="2.64" height="2.64"/>
    <rect x="809.92" y="41.76" width="2.64" height="2.64"/>
    <rect x="812.56" y="41.76" width="2.64" height="2.64"/>
    <rect x="815.20" y="41.76" width="2.64" height="2.64"/>
    <rect x="820.48" y="41.76" width="2.64" height="2.64"/>
    <rect x="831.04" y="41.76" width="2.64" height="2.64"/>
    <rect x="833.68" y="41.76" width="2.64" height="2.64"/>
    <rect x="838.96" y="41.76" width="2.64" height="2.64"/>
    <rect x="841.60" y="41.76" width="2.64" height="2.64"/>
    <rect x="852.16" y="41.76" width="2.64" height="2.64"/>
    <rect x="854.80" y="41.76" width="2.64" height="2.64"/>
    <rect x="857.44" y="41.76" width="2.64" height="2.64"/>
    <rect x="860.08" y="41.76" width="2.64" height="2.64"/>
    <rect x="862.72" y="41.76" width="2.64" height="2.64"/>
    <rect x="802.00" y="44.40" width="2.64" height="2.64"/>
    <rect x="809.92" y="44.40" width="2.64" height="2.64"/>
    <rect x="812.56" y="44.40" width="2.64" height="2.64"/>
    <rect x="817.84" y="44.40" width="2.64" height="2.64"/>
    <rect x="825.76" y="44.40" width="2.64" height="2.64"/>
    <rect x="833.68" y="44.40" width="2.64" height="2.64"/>
    <rect x="841.60" y="44.40" width="2.64" height="2.64"/>
    <rect x="852.16" y="44.40" width="2.64" height="2.64"/>
    <rect x="854.80" y="44.40" width="2.64" height="2.64"/>
    <rect x="857.44" y="44.40" width="2.64" height="2.64"/>
    <rect x="862.72" y="44.40" width="2.64" height="2.64"/>
    <rect x="865.36" y="44.40" width="2.64" height="2.64"/>
    <rect x="802.00" y="47.04" width="2.64" height="2.64"/>
    <rect x="807.28" y="47.04" width="2.64" height="2.64"/>
    <rect x="809.92" y="47.04" width="2.64" height="2.64"/>
    <rect x="812.56" y="47.04" width="2.64" height="2.64"/>
    <rect x="825.76" y="47.04" width="2.64" height="2.64"/>
    <rect x="828.40" y="47.04" width="2.64" height="2.64"/>
    <rect x="833.68" y="47.04" width="2.64" height="2.64"/>
    <rect x="838.96" y="47.04" width="2.64" height="2.64"/>
    <rect x="841.60" y="47.04" width="2.64" height="2.64"/>
    <rect x="844.24" y="47.04" width="2.64" height="2.64"/>
    <rect x="846.88" y="47.04" width="2.64" height="2.64"/>
    <rect x="849.52" y="47.04" width="2.64" height="2.64"/>
    <rect x="852.16" y="47.04" width="2.64" height="2.64"/>
    <rect x="857.44" y="47.04" width="2.64" height="2.64"/>
    <rect x="865.36" y="47.04" width="2.64" height="2.64"/>
    <rect x="807.28" y="49.68" width="2.64" height="2.64"/>
    <rect x="809.92" y="49.68" width="2.64" height="2.64"/>
    <rect x="812.56" y="49.68" width="2.64" height="2.64"/>
    <rect x="815.20" y="49.68" width="2.64" height="2.64"/>
    <rect x="817.84" y="49.68" width="2.64" height="2.64"/>
    <rect x="820.48" y="49.68" width="2.64" height="2.64"/>
    <rect x="823.12" y="49.68" width="2.64" height="2.64"/>
    <rect x="831.04" y="49.68" width="2.64" height="2.64"/>
    <rect x="833.68" y="49.68" width="2.64" height="2.64"/>
    <rect x="844.24" y="49.68" width="2.64" height="2.64"/>
    <rect x="849.52" y="49.68" width="2.64" height="2.64"/>
    <rect x="852.16" y="49.68" width="2.64" height="2.64"/>
    <rect x="865.36" y="49.68" width="2.64" height="2.64"/>
    <rect x="802.00" y="52.32" width="2.64" height="2.64"/>
    <rect x="807.28" y="52.32" width="2.64" height="2.64"/>
    <rect x="812.56" y="52.32" width="2.64" height="2.64"/>
    <rect x="833.68" y="52.32" width="2.64" height="2.64"/>
    <rect x="838.96" y="52.32" width="2.64" height="2.64"/>
    <rect x="841.60" y="52.32" width="2.64" height="2.64"/>
    <rect x="846.88" y="52.32" width="2.64" height="2.64"/>
    <rect x="852.16" y="52.32" width="2.64" height="2.64"/>
    <rect x="862.72" y="52.32" width="2.64" height="2.64"/>
    <rect x="802.00" y="54.96" width="2.64" height="2.64"/>
    <rect x="807.28" y="54.96" width="2.64" height="2.64"/>
    <rect x="809.92" y="54.96" width="2.64" height="2.64"/>
    <rect x="812.56" y="54.96" width="2.64" height="2.64"/>
    <rect x="817.84" y="54.96" width="2.64" height="2.64"/>
    <rect x="820.48" y="54.96" width="2.64" height="2.64"/>
    <rect x="823.12" y="54.96" width="2.64" height="2.64"/>
    <rect x="833.68" y="54.96" width="2.64" height="2.64"/>
    <rect x="836.32" y="54.96" width="2.64" height="2.64"/>
    <rect x="841.60" y="54.96" width="2.64" height="2.64"/>
    <rect x="846.88" y="54.96" width="2.64" height="2.64"/>
    <rect x="849.52" y="54.96" width="2.64" height="2.64"/>
    <rect x="852.16" y="54.96" width="2.64" height="2.64"/>
    <rect x="854.80" y="54.96" width="2.64" height="2.64"/>
    <rect x="857.44" y="54.96" width="2.64" height="2.64"/>
    <rect x="862.72" y="54.96" width="2.64" height="2.64"/>
    <rect x="865.36" y="54.96" width="2.64" height="2.64"/>
    <rect x="802.00" y="57.60" width="2.64" height="2.64"/>
    <rect x="809.92" y="57.60" width="2.64" height="2.64"/>
    <rect x="812.56" y="57.60" width="2.64" height="2.64"/>
    <rect x="825.76" y="57.60" width="2.64" height="2.64"/>
    <rect x="828.40" y="57.60" width="2.64" height="2.64"/>
    <rect x="831.04" y="57.60" width="2.64" height="2.64"/>
    <rect x="838.96" y="57.60" width="2.64" height="2.64"/>
    <rect x="841.60" y="57.60" width="2.64" height="2.64"/>
    <rect x="844.24" y="57.60" width="2.64" height="2.64"/>
    <rect x="849.52" y="57.60" width="2.64" height="2.64"/>
    <rect x="852.16" y="57.60" width="2.64" height="2.64"/>
    <rect x="857.44" y="57.60" width="2.64" height="2.64"/>
    <rect x="860.08" y="57.60" width="2.64" height="2.64"/>
    <rect x="865.36" y="57.60" width="2.64" height="2.64"/>
    <rect x="802.00" y="60.24" width="2.64" height="2.64"/>
    <rect x="807.28" y="60.24" width="2.64" height="2.64"/>
    <rect x="817.84" y="60.24" width="2.64" height="2.64"/>
    <rect x="823.12" y="60.24" width="2.64" height="2.64"/>
    <rect x="828.40" y="60.24" width="2.64" height="2.64"/>
    <rect x="831.04" y="60.24" width="2.64" height="2.64"/>
    <rect x="833.68" y="60.24" width="2.64" height="2.64"/>
    <rect x="836.32" y="60.24" width="2.64" height="2.64"/>
    <rect x="838.96" y="60.24" width="2.64" height="2.64"/>
    <rect x="841.60" y="60.24" width="2.64" height="2.64"/>
    <rect x="844.24" y="60.24" width="2.64" height="2.64"/>
    <rect x="846.88" y="60.24" width="2.64" height="2.64"/>
    <rect x="849.52" y="60.24" width="2.64" height="2.64"/>
    <rect x="852.16" y="60.24" width="2.64" height="2.64"/>
    <rect x="854.80" y="60.24" width="2.64" height="2.64"/>
    <rect x="860.08" y="60.24" width="2.64" height="2.64"/>
    <rect x="823.12" y="62.88" width="2.64" height="2.64"/>
    <rect x="825.76" y="62.88" width="2.64" height="2.64"/>
    <rect x="828.40" y="62.88" width="2.64" height="2.64"/>
    <rect x="831.04" y="62.88" width="2.64" height="2.64"/>
    <rect x="836.32" y="62.88" width="2.64" height="2.64"/>
    <rect x="844.24" y="62.88" width="2.64" height="2.64"/>
    <rect x="854.80" y="62.88" width="2.64" height="2.64"/>
    <rect x="802.00" y="65.52" width="2.64" height="2.64"/>
    <rect x="804.64" y="65.52" width="2.64" height="2.64"/>
    <rect x="807.28" y="65.52" width="2.64" height="2.64"/>
    <rect x="809.92" y="65.52" width="2.64" height="2.64"/>
    <rect x="812.56" y="65.52" width="2.64" height="2.64"/>
    <rect x="815.20" y="65.52" width="2.64" height="2.64"/>
    <rect x="817.84" y="65.52" width="2.64" height="2.64"/>
    <rect x="828.40" y="65.52" width="2.64" height="2.64"/>
    <rect x="831.04" y="65.52" width="2.64" height="2.64"/>
    <rect x="838.96" y="65.52" width="2.64" height="2.64"/>
    <rect x="844.24" y="65.52" width="2.64" height="2.64"/>
    <rect x="849.52" y="65.52" width="2.64" height="2.64"/>
    <rect x="854.80" y="65.52" width="2.64" height="2.64"/>
    <rect x="865.36" y="65.52" width="2.64" height="2.64"/>
    <rect x="802.00" y="68.16" width="2.64" height="2.64"/>
    <rect x="817.84" y="68.16" width="2.64" height="2.64"/>
    <rect x="828.40" y="68.16" width="2.64" height="2.64"/>
    <rect x="833.68" y="68.16" width="2.64" height="2.64"/>
    <rect x="841.60" y="68.16" width="2.64" height="2.64"/>
    <rect x="844.24" y="68.16" width="2.64" height="2.64"/>
    <rect x="854.80" y="68.16" width="2.64" height="2.64"/>
    <rect x="802.00" y="70.80" width="2.64" height="2.64"/>
    <rect x="807.28" y="70.80" width="2.64" height="2.64"/>
    <rect x="809.92" y="70.80" width="2.64" height="2.64"/>
    <rect x="812.56" y="70.80" width="2.64" height="2.64"/>
    <rect x="817.84" y="70.80" width="2.64" height="2.64"/>
    <rect x="828.40" y="70.80" width="2.64" height="2.64"/>
    <rect x="833.68" y="70.80" width="2.64" height="2.64"/>
    <rect x="836.32" y="70.80" width="2.64" height="2.64"/>
    <rect x="838.96" y="70.80" width="2.64" height="2.64"/>
    <rect x="841.60" y="70.80" width="2.64" height="2.64"/>
    <rect x="844.24" y="70.80" width="2.64" height="2.64"/>
    <rect x="846.88" y="70.80" width="2.64" height="2.64"/>
    <rect x="849.52" y="70.80" width="2.64" height="2.64"/>
    <rect x="852.16" y="70.80" width="2.64" height="2.64"/>
    <rect x="854.80" y="70.80" width="2.64" height="2.64"/>
    <rect x="860.08" y="70.80" width="2.64" height="2.64"/>
    <rect x="802.00" y="73.44" width="2.64" height="2.64"/>
    <rect x="807.28" y="73.44" width="2.64" height="2.64"/>
    <rect x="809.92" y="73.44" width="2.64" height="2.64"/>
    <rect x="812.56" y="73.44" width="2.64" height="2.64"/>
    <rect x="817.84" y="73.44" width="2.64" height="2.64"/>
    <rect x="828.40" y="73.44" width="2.64" height="2.64"/>
    <rect x="831.04" y="73.44" width="2.64" height="2.64"/>
    <rect x="836.32" y="73.44" width="2.64" height="2.64"/>
    <rect x="838.96" y="73.44" width="2.64" height="2.64"/>
    <rect x="841.60" y="73.44" width="2.64" height="2.64"/>
    <rect x="844.24" y="73.44" width="2.64" height="2.64"/>
    <rect x="846.88" y="73.44" width="2.64" height="2.64"/>
    <rect x="849.52" y="73.44" width="2.64" height="2.64"/>
    <rect x="862.72" y="73.44" width="2.64" height="2.64"/>
    <rect x="865.36" y="73.44" width="2.64" height="2.64"/>
    <rect x="802.00" y="76.08" width="2.64" height="2.64"/>
    <rect x="807.28" y="76.08" width="2.64" height="2.64"/>
    <rect x="809.92" y="76.08" width="2.64" height="2.64"/>
    <rect x="812.56" y="76.08" width="2.64" height="2.64"/>
    <rect x="817.84" y="76.08" width="2.64" height="2.64"/>
    <rect x="825.76" y="76.08" width="2.64" height="2.64"/>
    <rect x="836.32" y="76.08" width="2.64" height="2.64"/>
    <rect x="838.96" y="76.08" width="2.64" height="2.64"/>
    <rect x="857.44" y="76.08" width="2.64" height="2.64"/>
    <rect x="860.08" y="76.08" width="2.64" height="2.64"/>
    <rect x="865.36" y="76.08" width="2.64" height="2.64"/>
    <rect x="802.00" y="78.72" width="2.64" height="2.64"/>
    <rect x="817.84" y="78.72" width="2.64" height="2.64"/>
    <rect x="828.40" y="78.72" width="2.64" height="2.64"/>
    <rect x="838.96" y="78.72" width="2.64" height="2.64"/>
    <rect x="841.60" y="78.72" width="2.64" height="2.64"/>
    <rect x="844.24" y="78.72" width="2.64" height="2.64"/>
    <rect x="852.16" y="78.72" width="2.64" height="2.64"/>
    <rect x="854.80" y="78.72" width="2.64" height="2.64"/>
    <rect x="865.36" y="78.72" width="2.64" height="2.64"/>
    <rect x="802.00" y="81.36" width="2.64" height="2.64"/>
    <rect x="804.64" y="81.36" width="2.64" height="2.64"/>
    <rect x="807.28" y="81.36" width="2.64" height="2.64"/>
    <rect x="809.92" y="81.36" width="2.64" height="2.64"/>
    <rect x="812.56" y="81.36" width="2.64" height="2.64"/>
    <rect x="815.20" y="81.36" width="2.64" height="2.64"/>
    <rect x="817.84" y="81.36" width="2.64" height="2.64"/>
    <rect x="823.12" y="81.36" width="2.64" height="2.64"/>
    <rect x="825.76" y="81.36" width="2.64" height="2.64"/>
    <rect x="828.40" y="81.36" width="2.64" height="2.64"/>
    <rect x="831.04" y="81.36" width="2.64" height="2.64"/>
    <rect x="844.24" y="81.36" width="2.64" height="2.64"/>
    <rect x="846.88" y="81.36" width="2.64" height="2.64"/>
    <rect x="849.52" y="81.36" width="2.64" height="2.64"/>
    <rect x="857.44" y="81.36" width="2.64" height="2.64"/>
    <rect x="865.36" y="81.36" width="2.64" height="2.64"/>
  </g>
  <text x="835" y="100" text-anchor="middle" font-family="Courier New, monospace" font-size="7" letter-spacing="0.5" fill="#8b98a5">SCANNER POUR GITHUB</text>
</svg>
